inDegrees=no
num_controls=7
num_derivatives=13
num_iterations=123
num_multipliers=7
num_parameters=0
num_slacks=7
num_states=26
objective=1.103196
objective_accelerations=0.159131
objective_balance=0.005020
objective_effort=0.035261
objective_height=0.897912
objective_ligament=0.005872
solver_duration=1701.760892
status=Solve_Succeeded
success=true
DataType=double
version=3
OpenSimVersion=4.5
endheader
time	/jointset/ground_pelvis/pelvis_tilt/value	/jointset/ground_pelvis/pelvis_tx/value	/jointset/ground_pelvis/pelvis_ty/value	/jointset/hip_l/hip_flexion_l/value	/jointset/hip_l/hip_adduction_l/value	/jointset/hip_l/hip_rotation_l/value	/jointset/back/lumbar_extension/value	/jointset/patellofemoral_l/patellar_flexion_l/value	/jointset/knee_l/knee_flexion_l/value	/jointset/knee_l/knee_adduction_l/value	/jointset/knee_l/knee_rotation_l/value	/jointset/ankle_l/ankle_angle_l/value	/jointset/subtalar_l/subtalar_angle_l/value	/jointset/ground_pelvis/pelvis_tilt/speed	/jointset/ground_pelvis/pelvis_tx/speed	/jointset/ground_pelvis/pelvis_ty/speed	/jointset/hip_l/hip_flexion_l/speed	/jointset/hip_l/hip_adduction_l/speed	/jointset/hip_l/hip_rotation_l/speed	/jointset/back/lumbar_extension/speed	/jointset/patellofemoral_l/patellar_flexion_l/speed	/jointset/knee_l/knee_flexion_l/speed	/jointset/knee_l/knee_adduction_l/speed	/jointset/knee_l/knee_rotation_l/speed	/jointset/ankle_l/ankle_angle_l/speed	/jointset/subtalar_l/subtalar_angle_l/speed	/forceset/tau_hip_flexion_l	/forceset/tau_hip_adduction_l	/forceset/tau_hip_rotation_l	/forceset/tau_knee_flexion_l	/forceset/tau_ankle_angle_l	/forceset/tau_subtalar_angle_l	/forceset/tau_lumbar_extension	lambda_cid13_p0	lambda_cid13_p1	lambda_cid13_p2	lambda_cid13_p3	lambda_cid13_p4	lambda_cid13_p5	lambda_cid14_p0	/jointset/ground_pelvis/pelvis_tilt/accel	/jointset/ground_pelvis/pelvis_tx/accel	/jointset/ground_pelvis/pelvis_ty/accel	/jointset/hip_l/hip_flexion_l/accel	/jointset/hip_l/hip_adduction_l/accel	/jointset/hip_l/hip_rotation_l/accel	/jointset/back/lumbar_extension/accel	/jointset/patellofemoral_l/patellar_flexion_l/accel	/jointset/knee_l/knee_flexion_l/accel	/jointset/knee_l/knee_adduction_l/accel	/jointset/knee_l/knee_rotation_l/accel	/jointset/ankle_l/ankle_angle_l/accel	/jointset/subtalar_l/subtalar_angle_l/accel	gamma_cid13_p0	gamma_cid13_p1	gamma_cid13_p2	gamma_cid13_p3	gamma_cid13_p4	gamma_cid13_p5	gamma_cid14_p0
0.5	-0.2446976942760263	-0.06220367032551191	0.5951699452061826	1.523592235626988	-0.4480377459118583	-0.01727272871722454	-0.2617988849674033	1.444355329061254	1.444355329061286	0.01240633247114975	-0.1391941610565949	0.3040851070158623	0.07088511223817374	-0.2190744932617357	0.003728652933039865	-1.060403060537159	3.015695684941149	-0.1856057617346524	0.7888502279880405	-0.0001074336114715559	3.160561355392152	3.160561355392162	0.6175495451069918	-0.2656541602990459	0.7076309885743971	0.2234437384794975	-0.1295482098576533	-0.0444888656430879	-0.003427739279495438	-0.4664442156914922	0.1919230412259979	0.04290382020707528	0.1537559947242507	26.67075955908522	-21.79147456830303	1.411730374021282	-32.76332859383609	-576.0514151582386	-86.75399726990027	-0.2203752563403529	3.04237797851248	1.635724244005178	0.6320443724882648	-5.512411770166314	0.9080068638634603	-0.1179176442618875	0.04513878057860509	-5.19182163270678	-5.191821632706286	-0.1787805953664247	1.383025886790532	-2.610932793266703	-0.3431099516716263	-1.274124120980181e-07	-5.630241654842386e-06	-1.177417429985952e-05	-2.41881188548596e-06	1.479704690538068e-08	-1.313763168515394e-05	1.133669867425834e-06
0.51	-0.2467375453325699	-0.062085324785373	0.5846005732674788	1.553470972334834	-0.4498487058017915	-0.009401525005217258	-0.2617976172094957	1.475697167564719	1.475697167564741	0.01858081618828435	-0.1417851877591526	0.3110299363938544	0.07310131371293127	-0.1889484457833448	0.01987395095066875	-1.053153055258811	2.959669782014861	-0.1765851090063939	0.7852983168206968	0.000292915077245776	3.107433818846729	3.107433818846869	0.6171671625746351	-0.2525640235051197	0.6813066638833211	0.2197597150563472	-0.1332019553260584	-0.04402957040524333	-0.003728241788824701	-0.4763352178609808	0.1911176993445179	0.04165187732794949	0.1570150030272845	25.78027735250311	-20.9837612349518	1.159513784151826	-31.55788860841565	-584.9831784212889	-87.01022864331065	-0.0654213198325436	2.989933578563327	1.593463365353541	0.8192207904284288	-5.704810560063132	0.9010280993250448	-0.4870257250105114	0.0272723939273154	-5.429342066957968	-5.429342066938898	0.004997264345805378	1.267189416656355	-2.647875492560521	-0.3842053496702558	-4.07049300985706e-08	-5.563048262195196e-06	-1.235540152228707e-05	-2.451408807461546e-06	3.108559740831968e-08	-1.473665144492544e-05	1.34322718528335e-06
0.52	-0.2484776928251162	-0.06180762010811545	0.5741132498185425	1.58277802381218	-0.4515690724400381	-0.001568479979289641	-0.2617943880684725	1.506496506222429	1.506496506222443	0.02474606894940545	-0.1442462767255863	0.3177105838878298	0.07528004359105055	-0.1591337804625196	0.03560048035676482	-1.043993362583656	2.901358638840447	-0.1674871113974181	0.7812184907717539	0.0002848430023177598	3.052061386241385	3.052061386241653	0.6157033539029267	-0.2396666130726837	0.6547946117709472	0.2159494191518595	-0.1368557007944502	-0.04357027516738476	-0.004028744298125514	-0.4862262200304671	0.1903123574630396	0.04039993444884438	0.1602740113303304	24.88349944560518	-20.17163495032371	0.9028009730330966	-30.40096300642172	-594.0030320015132	-87.26478491700865	-0.0306465199547329	2.980101546999325	1.551970521698614	1.013981851849703	-5.96945981979155	0.9234758400069184	-0.2235006205817237	-0.03654537215082892	-5.640800844691099	-5.640800844690736	-0.3950658232367962	1.344480614492508	-2.648478277526288	-0.3683644479390947	9.881649787328405e-08	-5.2595896571468e-06	-1.280816393054048e-05	-2.417951714209278e-06	7.981706680335313e-08	-1.636829201987695e-05	1.597920403312448e-06
0.53	-0.249921874041246	-0.06137486208678211	0.5637268852626036	1.611491078742945	-0.4531977043833992	0.006220552282495428	-0.2617923547437377	1.536731346885392	1.536731346885385	0.03089267772179403	-0.1465780515272459	0.324125845128122	0.07742104893681845	-0.1298115341271009	0.05087087068646053	-1.032975882829	2.840899572203217	-0.1582547938782334	0.7764942191778432	0.000133597966263421	2.994560687728978	2.994560687728994	0.6134150001662849	-0.226722428610614	0.6282760922095078	0.2122243094640828	-0.1407165302799087	-0.04342711124080531	-0.004635301827988247	-0.494893986840443	0.1880050937790957	0.03949138259740347	0.1636692072464694	23.54319936241495	-19.46841869862084	0.7062198519063945	-28.87528255656877	-602.5801601612109	-87.79331756302852	-0.0304223744333524	2.89208357954952	1.502055229433656	1.191201986232543	-6.136861891182513	0.9226009438618853	-0.610047620621152	-0.00264766696529158	-5.856959487592625	-5.856959487630549	-0.1758672586629937	1.261088244485187	-2.651163516791412	-0.3763086144162515	1.928338705185561e-07	-5.035005656651787e-06	-1.299328296675038e-05	-2.368675448519602e-06	8.449640263740932e-08	-1.77390785631374e-05	1.791640321939144e-06
0.54	-0.2510760733134751	-0.06079190377398608	0.553459809694003	1.639588996646234	-0.4547341149043719	0.01395971038997883	-0.2617914805888473	1.566380729536615	1.566380729536589	0.03701037353486296	-0.1487820443078059	0.3302763962285324	0.07952445830866467	-0.1011373916822289	0.06564053864930081	-1.020135565116001	2.778331233346234	-0.1490428269195449	0.7712436599109123	5.300902490610904e-05	2.934969783893489	2.934969783893252	0.6099207620382427	-0.2141102088517027	0.6018525837945237	0.2084302243675369	-0.1445773597654036	-0.04328394731421869	-0.005241859357854228	-0.5035617536504189	0.1856978300951589	0.03858283074597786	0.1670644031625719	22.18904886338836	-18.74759027559938	0.4894724280811457	-27.33313808817537	-611.3403022788877	-88.30460631872997	-0.03020817559577657	2.850480768889939	1.451826048327525	1.37854944351816	-6.39131426374224	0.9194057279076989	-0.3287581551857703	-0.02241415321150638	-6.058841909307386	-6.05884190930728	-0.6362427015169299	1.278087673860824	-2.629476048235217	-0.3821595296929301	2.365063308876086e-07	-4.897687176088177e-06	-1.288228593176318e-05	-2.301897119707688e-06	4.043720772314966e-08	-1.882126064580349e-05	1.917900419950417e-06
0.55	-0.2519471276721031	-0.06006395128723806	0.5433299819825197	1.667051165718491	-0.4561784184851686	0.02164354265139495	-0.2617911447711375	1.595424272221097	1.595424272221093	0.04308770731978942	-0.1508607346016329	0.3361636417385032	0.08159004528771137	-0.07321715961696505	0.07984913797586658	-1.005552676153615	2.713791128139781	-0.1398362458084297	0.7654217161966197	1.524383441220303e-05	2.873436303643087	2.873436303643113	0.605359735487857	-0.2016639211033092	0.5756534414875542	0.2046841633066075	-0.1478526771088075	-0.04261473097806878	-0.00617301240924047	-0.5111533421625259	0.1830801483510583	0.03734951670748611	0.1698896298350548	20.77908956226502	-17.82728337684057	0.1853490287055876	-25.61023374695039	-619.056810566738	-88.26892155228806	-0.03003206055595135	2.74142077985037	1.389800671653531	1.539757057660812	-6.531874851218586	0.9202787679786973	-0.723100761583491	0.005705695788214966	-6.246365840842054	-6.246365840802723	-0.3933640494778166	1.219271205459722	-2.606942435179146	-0.3689768490875203	2.631414857167634e-07	-4.721863664779085e-06	-1.252870230826544e-05	-2.20463087959381e-06	-1.124490973864678e-08	-1.95095459687455e-05	1.994383037520276e-06
